<svg xmlns="http://www.w3.org/2000/svg" width="1132" viewBox="0 0 1132 804" height="804" xmlns:ev="http://www.w3.org/2001/xml-events" xmlns:xlink="http://www.w3.org/1999/xlink"><defs/><g id="page1" transform="translate(5.5,5.5)"><rect y="0" fill="#ffffff" width="1123" height="794" x="0"/><g id="group1"><path fill="#ffffff" d="M.0,.0L1120.0,.0L1120.0,791.7L.0,791.7L.0,.0z" fill-rule="nonzero" id="shape2" transform="translate(0.001000,2.001000)"/><path fill="#e6fefc" d="M.0,.0L.0,127.3L608.9,1.2L.0,.0z" fill-rule="nonzero" id="shape3" transform="translate(0.000000,0.000100)"/><path fill="#e6fefc" d="M.0,.0L.0,174.8L146.4,174.0L.0,.0z" fill-rule="nonzero" id="shape4" transform="translate(0.000100,618.934700)"/><path fill="#e6fefc" d="M147.9,.0L.0,105.5L146.4,104.7L147.9,.0z" fill-rule="nonzero" id="shape5" transform="translate(974.624000,688.227300)"/><path fill="#fefdf3" d="M.0,.0L77.8,97.0L1056.8,97.0L1056.8,80.1L.0,.0z" fill-rule="nonzero" id="shape6" transform="translate(64.705000,695.925400)"/><path fill="#fefdf3" d="M55.6,.0L.0,11.1L569.0,74.9L567.7,1.8L55.6,.0z" fill-rule="nonzero" id="shape7" transform="translate(553.286000,1.180500)"/></g><g id="shape8" transform="translate(254.000000,233.759300)"><path fill="#aada8f" d="M141.7,90.5C148.5,90.5,154.0,85.0,154.0,78.2L154.0,12.3C154.0,5.5,148.5,.0,141.7,.0L12.3,.0C5.5,.0,.0,5.5,.0,12.3L.0,78.2C.0,85.0,5.5,90.5,12.3,90.5L141.7,90.5z" fill-rule="nonzero"/><path stroke-width="1" fill="none" d="M141.7,90.5C148.5,90.5,154.0,85.0,154.0,78.2L154.0,12.3C154.0,5.5,148.5,.0,141.7,.0L12.3,.0C5.5,.0,.0,5.5,.0,12.3L.0,78.2C.0,85.0,5.5,90.5,12.3,90.5L141.7,90.5zM.0,22.6L154.0,22.6" stroke="#000000"/><text xml:space="preserve" style="fill:#191919;font-family:Microsoft YaHei;font-size:10.00pt;font-weight:bold"><tspan y="16.0" x="20.9">mapped memory</tspan></text><text xml:space="preserve" style="fill:#191919;font-family:Microsoft YaHei;font-size:10.00pt"><tspan y="61.2" x="51.7">creation</tspan></text></g><g id="group9"><g id="group10" transform="translate(0.000000,763.701000)"><path stroke-width="1" fill="#00aeee" d="M.0,.0L853.1,.0L853.1,9.4L.0,9.4L.0,.0z" fill-rule="nonzero" stroke="#00aeee" id="shape11" transform="translate(0.000000,20.625000)"/><g id="shape12" transform="translate(853.115000,0.000000)"><path stroke-width="1" fill="#8acf57" d="M.0,.0L269.4,.0L269.4,30.0L.0,30.0L.0,.0z" fill-rule="nonzero" stroke="#8acf57"/><text xml:space="preserve" style="fill:#ffffff;font-family:Microsoft YaHei;font-size:10.00pt"><tspan y="20.0" x="57.1">phantomics / July 9 2023</tspan></text></g></g><g id="group13"><g id="shape14" transform="translate(0.000000,9.428600)"><path stroke-width="1" fill="#00aeee" d="M.0,.0L1122.5,.0L1122.5,47.1L.0,47.1L.0,.0z" fill-rule="nonzero" stroke="#00aeee"/><text xml:space="preserve" style="fill:#ffffff;font-family:Microsoft YaHei;font-size:10.00pt"><tspan y="29.0" x="486.5">GPU pipeline</tspan></text><text xml:space="preserve" style="fill:#ffffff;font-family:Microsoft YaHei;font-size:10.00pt"><tspan y="29.0" x="1007.8">John Thingstad</tspan></text></g><path stroke-width="1" fill="#8acf57" d="M.0,.0L66.0,.0L66.0,66.0L.0,66.0L.0,.0z" fill-rule="nonzero" stroke="#8acf57" id="shape15" transform="translate(18.897600,0.000000)"/><path stroke-width="1" fill="#ffffff" d="M.0,.0L3.8,.0L3.8,33.0L.0,33.0L.0,.0z" fill-rule="nonzero" stroke="#ffffff" id="shape16" transform="translate(973.925240,16.500000)"/></g></g><g id="shape17" transform="translate(266.962600,121.697200)"><path stroke-width="1" fill="#ffbf28" d="M128.1,78.6L128.1,.0L.0,.0L.0,78.6L128.1,78.6z" fill-rule="nonzero" stroke="#000000"/><text xml:space="preserve" style="fill:#ffffff;font-family:Microsoft YaHei;font-size:12.00pt;font-weight:bold"><tspan y="34.5" x="36.2">Vulkan </tspan><tspan y="56.5" x="31.8">pipeline</tspan></text></g><g id="shape18" transform="translate(254.000000,592.259300)"><path fill="#aada8f" d="M141.7,81.5C148.5,81.5,154.0,76.0,154.0,69.2L154.0,12.3C154.0,5.5,148.5,.0,141.7,.0L12.3,.0C5.5,.0,.0,5.5,.0,12.3L.0,69.2C.0,76.0,5.5,81.5,12.3,81.5L141.7,81.5z" fill-rule="nonzero"/><path stroke-width="1" fill="none" d="M141.7,81.5C148.5,81.5,154.0,76.0,154.0,69.2L154.0,12.3C154.0,5.5,148.5,.0,141.7,.0L12.3,.0C5.5,.0,.0,5.5,.0,12.3L.0,69.2C.0,76.0,5.5,81.5,12.3,81.5L141.7,81.5zM.0,20.4L154.0,20.4" stroke="#000000"/><text xml:space="preserve" style="fill:#191919;font-family:Microsoft YaHei;font-size:10.00pt;font-weight:bold"><tspan y="15.0" x="61.3">copy</tspan></text><text xml:space="preserve" style="fill:#191919;font-family:Microsoft YaHei;font-size:10.00pt"><tspan y="55.5" x="39.8">CPU to GPU</tspan></text></g><g id="shape19" transform="translate(463.000000,469.460300)"><path fill="#aada8f" d="M141.7,81.5C148.5,81.5,154.0,76.0,154.0,69.2L154.0,12.3C154.0,5.5,148.5,.0,141.7,.0L12.3,.0C5.5,.0,.0,5.5,.0,12.3L.0,69.2C.0,76.0,5.5,81.5,12.3,81.5L141.7,81.5z" fill-rule="nonzero"/><path stroke-width="1" fill="none" d="M141.7,81.5C148.5,81.5,154.0,76.0,154.0,69.2L154.0,12.3C154.0,5.5,148.5,.0,141.7,.0L12.3,.0C5.5,.0,.0,5.5,.0,12.3L.0,69.2C.0,76.0,5.5,81.5,12.3,81.5L141.7,81.5zM.0,20.4L154.0,20.4" stroke="#000000"/><text xml:space="preserve" style="fill:#191919;font-family:Microsoft YaHei;font-size:10.00pt;font-weight:bold"><tspan y="15.0" x="22.1">command buffer</tspan></text><text xml:space="preserve" style="fill:#191919;font-family:Microsoft YaHei;font-size:10.00pt"><tspan y="55.5" x="19.1">pipeline binding N</tspan></text></g><g id="shape20" transform="translate(54.000000,253.000000)"><path stroke-width="1" fill="#8ba7e1" d="M173.0,.0L.0,.0L.0,52.0L173.0,52.0M43.3,.0L43.3,52.0L.0,52.0L.0,.0L173.0,.0L43.3,.0z" fill-rule="nonzero" stroke="#000000"/><text xml:space="preserve" style="fill:#191919;font-family:Microsoft YaHei;font-size:8.00pt"><tspan y="30.5" x="18.4">1</tspan></text><text xml:space="preserve" style="fill:#191919;font-family:Microsoft YaHei;font-size:8.00pt"><tspan y="30.5" x="70.2">SPIV bytecode</tspan></text></g><g id="shape21" transform="translate(76.462600,121.696800)"><path stroke-width="1" fill="#ffbf28" d="M128.1,73.7L128.1,.0L.0,.0L.0,73.7L128.1,73.7z" fill-rule="nonzero" stroke="#000000"/><text xml:space="preserve" style="fill:#ffffff;font-family:Microsoft YaHei;font-size:12.00pt;font-weight:bold"><tspan y="43.0" x="44.6">April</tspan></text></g><g id="shape22" transform="translate(463.000000,592.259300)"><path fill="#aada8f" d="M141.7,81.5C148.5,81.5,154.0,76.0,154.0,69.2L154.0,12.3C154.0,5.5,148.5,.0,141.7,.0L12.3,.0C5.5,.0,.0,5.5,.0,12.3L.0,69.2C.0,76.0,5.5,81.5,12.3,81.5L141.7,81.5z" fill-rule="nonzero"/><path stroke-width="1" fill="none" d="M141.7,81.5C148.5,81.5,154.0,76.0,154.0,69.2L154.0,12.3C154.0,5.5,148.5,.0,141.7,.0L12.3,.0C5.5,.0,.0,5.5,.0,12.3L.0,69.2C.0,76.0,5.5,81.5,12.3,81.5L141.7,81.5zM.0,20.4L154.0,20.4" stroke="#000000"/><text xml:space="preserve" style="fill:#191919;font-family:Microsoft YaHei;font-size:10.00pt;font-weight:bold"><tspan y="15.0" x="55.0">barrier</tspan></text><text xml:space="preserve" style="fill:#191919;font-family:Microsoft YaHei;font-size:10.00pt"><tspan y="55.5" x="52.1">pipeline</tspan></text></g><g id="shape23" transform="translate(140.500000,195.404000)"><path stroke-width="1" fill="none" d="M.0,.0L.0,52.6" stroke="#323232"/><path stroke-width="1" fill="#323232" d="M.0,57.0L3.0,51.8C2.1,52.3,1.1,52.6,.0,52.6C-1.1,52.6,-2.1,52.3,-3.0,51.8L.0,57.0" stroke="#323232" stroke-linecap="round"/></g><g id="shape24" transform="translate(254.000000,356.109300)"><path fill="#aada8f" d="M141.7,81.5C148.5,81.5,154.0,76.0,154.0,69.2L154.0,12.3C154.0,5.5,148.5,.0,141.7,.0L12.3,.0C5.5,.0,.0,5.5,.0,12.3L.0,69.2C.0,76.0,5.5,81.5,12.3,81.5L141.7,81.5z" fill-rule="nonzero"/><path stroke-width="1" fill="none" d="M141.7,81.5C148.5,81.5,154.0,76.0,154.0,69.2L154.0,12.3C154.0,5.5,148.5,.0,141.7,.0L12.3,.0C5.5,.0,.0,5.5,.0,12.3L.0,69.2C.0,76.0,5.5,81.5,12.3,81.5L141.7,81.5zM.0,20.4L154.0,20.4" stroke="#000000"/><text xml:space="preserve" style="fill:#191919;font-family:Microsoft YaHei;font-size:10.00pt;font-weight:bold"><tspan y="15.0" x="28.3">deescriptor set</tspan></text><text xml:space="preserve" style="fill:#191919;font-family:Microsoft YaHei;font-size:10.00pt"><tspan y="55.5" x="29.3">binding buffers</tspan></text></g><g id="shape25" transform="translate(463.000000,356.109300)"><path fill="#aada8f" d="M141.7,81.5C148.5,81.5,154.0,76.0,154.0,69.2L154.0,12.3C154.0,5.5,148.5,.0,141.7,.0L12.3,.0C5.5,.0,.0,5.5,.0,12.3L.0,69.2C.0,76.0,5.5,81.5,12.3,81.5L141.7,81.5z" fill-rule="nonzero"/><path stroke-width="1" fill="none" d="M141.7,81.5C148.5,81.5,154.0,76.0,154.0,69.2L154.0,12.3C154.0,5.5,148.5,.0,141.7,.0L12.3,.0C5.5,.0,.0,5.5,.0,12.3L.0,69.2C.0,76.0,5.5,81.5,12.3,81.5L141.7,81.5zM.0,20.4L154.0,20.4" stroke="#000000"/><text xml:space="preserve" style="fill:#191919;font-family:Microsoft YaHei;font-size:10.00pt;font-weight:bold"><tspan y="15.0" x="49.3">dispatch</tspan></text><text xml:space="preserve" style="fill:#191919;font-family:Microsoft YaHei;font-size:10.00pt"><tspan y="55.5" x="14.9">execute instructions</tspan></text></g><g id="shape26" transform="translate(463.000000,121.697300)"><path fill="#aada8f" d="M141.7,81.5C148.5,81.5,154.0,76.0,154.0,69.2L154.0,12.3C154.0,5.5,148.5,.0,141.7,.0L12.3,.0C5.5,.0,.0,5.5,.0,12.3L.0,69.2C.0,76.0,5.5,81.5,12.3,81.5L141.7,81.5z" fill-rule="nonzero"/><path stroke-width="1" fill="none" d="M141.7,81.5C148.5,81.5,154.0,76.0,154.0,69.2L154.0,12.3C154.0,5.5,148.5,.0,141.7,.0L12.3,.0C5.5,.0,.0,5.5,.0,12.3L.0,69.2C.0,76.0,5.5,81.5,12.3,81.5L141.7,81.5zM.0,20.4L154.0,20.4" stroke="#000000"/><text xml:space="preserve" style="fill:#191919;font-family:Microsoft YaHei;font-size:10.00pt;font-weight:bold"><tspan y="15.0" x="22.1">command buffer</tspan></text><text xml:space="preserve" style="fill:#191919;font-family:Microsoft YaHei;font-size:10.00pt"><tspan y="55.5" x="13.8">pipeline binding out</tspan></text></g><g id="shape27" transform="translate(660.740000,121.697300)"><path fill="#aada8f" d="M141.7,81.5C148.5,81.5,154.0,76.0,154.0,69.2L154.0,12.3C154.0,5.5,148.5,.0,141.7,.0L12.3,.0C5.5,.0,.0,5.5,.0,12.3L.0,69.2C.0,76.0,5.5,81.5,12.3,81.5L141.7,81.5z" fill-rule="nonzero"/><path stroke-width="1" fill="none" d="M141.7,81.5C148.5,81.5,154.0,76.0,154.0,69.2L154.0,12.3C154.0,5.5,148.5,.0,141.7,.0L12.3,.0C5.5,.0,.0,5.5,.0,12.3L.0,69.2C.0,76.0,5.5,81.5,12.3,81.5L141.7,81.5zM.0,20.4L154.0,20.4" stroke="#000000"/><text xml:space="preserve" style="fill:#191919;font-family:Microsoft YaHei;font-size:10.00pt;font-weight:bold"><tspan y="15.0" x="61.3">copy</tspan></text><text xml:space="preserve" style="fill:#191919;font-family:Microsoft YaHei;font-size:10.00pt"><tspan y="55.5" x="39.8">CPU to GPU</tspan></text></g><g id="shape28" transform="translate(660.740000,242.759300)"><path fill="#aada8f" d="M141.7,81.5C148.5,81.5,154.0,76.0,154.0,69.2L154.0,12.3C154.0,5.5,148.5,.0,141.7,.0L12.3,.0C5.5,.0,.0,5.5,.0,12.3L.0,69.2C.0,76.0,5.5,81.5,12.3,81.5L141.7,81.5z" fill-rule="nonzero"/><path stroke-width="1" fill="none" d="M141.7,81.5C148.5,81.5,154.0,76.0,154.0,69.2L154.0,12.3C154.0,5.5,148.5,.0,141.7,.0L12.3,.0C5.5,.0,.0,5.5,.0,12.3L.0,69.2C.0,76.0,5.5,81.5,12.3,81.5L141.7,81.5zM.0,20.4L154.0,20.4" stroke="#000000"/><text xml:space="preserve" style="fill:#191919;font-family:Microsoft YaHei;font-size:10.00pt;font-weight:bold"><tspan y="15.0" x="22.1">command buffer</tspan></text><text xml:space="preserve" style="fill:#191919;font-family:Microsoft YaHei;font-size:10.00pt"><tspan y="55.5" x="65.2">end</tspan></text></g><g id="shape29" transform="translate(463.000000,242.759300)"><path fill="#aada8f" d="M141.7,81.5C148.5,81.5,154.0,76.0,154.0,69.2L154.0,12.3C154.0,5.5,148.5,.0,141.7,.0L12.3,.0C5.5,.0,.0,5.5,.0,12.3L.0,69.2C.0,76.0,5.5,81.5,12.3,81.5L141.7,81.5z" fill-rule="nonzero"/><path stroke-width="1" fill="none" d="M141.7,81.5C148.5,81.5,154.0,76.0,154.0,69.2L154.0,12.3C154.0,5.5,148.5,.0,141.7,.0L12.3,.0C5.5,.0,.0,5.5,.0,12.3L.0,69.2C.0,76.0,5.5,81.5,12.3,81.5L141.7,81.5zM.0,20.4L154.0,20.4" stroke="#000000"/><text xml:space="preserve" style="fill:#191919;font-family:Microsoft YaHei;font-size:10.00pt;font-weight:bold"><tspan y="15.0" x="58.3">Fence</tspan></text><text xml:space="preserve" style="fill:#191919;font-family:Microsoft YaHei;font-size:10.00pt"><tspan y="55.5" x="57.9">create</tspan></text></g><g id="shape30" transform="translate(870.740000,242.759300)"><path fill="#aada8f" d="M141.7,81.5C148.5,81.5,154.0,76.0,154.0,69.2L154.0,12.3C154.0,5.5,148.5,.0,141.7,.0L12.3,.0C5.5,.0,.0,5.5,.0,12.3L.0,69.2C.0,76.0,5.5,81.5,12.3,81.5L141.7,81.5z" fill-rule="nonzero"/><path stroke-width="1" fill="none" d="M141.7,81.5C148.5,81.5,154.0,76.0,154.0,69.2L154.0,12.3C154.0,5.5,148.5,.0,141.7,.0L12.3,.0C5.5,.0,.0,5.5,.0,12.3L.0,69.2C.0,76.0,5.5,81.5,12.3,81.5L141.7,81.5zM.0,20.4L154.0,20.4" stroke="#000000"/><text xml:space="preserve" style="fill:#191919;font-family:Microsoft YaHei;font-size:10.00pt;font-weight:bold"><tspan y="15.0" x="41.3">conversion</tspan></text><text xml:space="preserve" style="fill:#191919;font-family:Microsoft YaHei;font-size:10.00pt"><tspan y="55.5" x="13.8">1D array to full form</tspan></text></g><g id="shape31" transform="translate(660.740000,356.109300)"><path fill="#aada8f" d="M141.7,81.5C148.5,81.5,154.0,76.0,154.0,69.2L154.0,12.3C154.0,5.5,148.5,.0,141.7,.0L12.3,.0C5.5,.0,.0,5.5,.0,12.3L.0,69.2C.0,76.0,5.5,81.5,12.3,81.5L141.7,81.5z" fill-rule="nonzero"/><path stroke-width="1" fill="none" d="M141.7,81.5C148.5,81.5,154.0,76.0,154.0,69.2L154.0,12.3C154.0,5.5,148.5,.0,141.7,.0L12.3,.0C5.5,.0,.0,5.5,.0,12.3L.0,69.2C.0,76.0,5.5,81.5,12.3,81.5L141.7,81.5zM.0,20.4L154.0,20.4" stroke="#000000"/><text xml:space="preserve" style="fill:#191919;font-family:Microsoft YaHei;font-size:10.00pt;font-weight:bold"><tspan y="15.0" x="58.3">Fence</tspan></text><text xml:space="preserve" style="fill:#191919;font-family:Microsoft YaHei;font-size:10.00pt"><tspan y="55.5" x="57.9">create</tspan></text></g><g id="shape32" transform="translate(660.740000,469.460300)"><path fill="#aada8f" d="M141.7,81.5C148.5,81.5,154.0,76.0,154.0,69.2L154.0,12.3C154.0,5.5,148.5,.0,141.7,.0L12.3,.0C5.5,.0,.0,5.5,.0,12.3L.0,69.2C.0,76.0,5.5,81.5,12.3,81.5L141.7,81.5z" fill-rule="nonzero"/><path stroke-width="1" fill="none" d="M141.7,81.5C148.5,81.5,154.0,76.0,154.0,69.2L154.0,12.3C154.0,5.5,148.5,.0,141.7,.0L12.3,.0C5.5,.0,.0,5.5,.0,12.3L.0,69.2C.0,76.0,5.5,81.5,12.3,81.5L141.7,81.5zM.0,20.4L154.0,20.4" stroke="#000000"/><text xml:space="preserve" style="fill:#191919;font-family:Microsoft YaHei;font-size:10.00pt;font-weight:bold"><tspan y="15.0" x="56.7">queue</tspan></text><text xml:space="preserve" style="fill:#191919;font-family:Microsoft YaHei;font-size:10.00pt"><tspan y="55.5" x="55.6">submit</tspan></text></g><g id="shape33" transform="translate(660.740000,592.259300)"><path fill="#aada8f" d="M141.7,81.5C148.5,81.5,154.0,76.0,154.0,69.2L154.0,12.3C154.0,5.5,148.5,.0,141.7,.0L12.3,.0C5.5,.0,.0,5.5,.0,12.3L.0,69.2C.0,76.0,5.5,81.5,12.3,81.5L141.7,81.5z" fill-rule="nonzero"/><path stroke-width="1" fill="none" d="M141.7,81.5C148.5,81.5,154.0,76.0,154.0,69.2L154.0,12.3C154.0,5.5,148.5,.0,141.7,.0L12.3,.0C5.5,.0,.0,5.5,.0,12.3L.0,69.2C.0,76.0,5.5,81.5,12.3,81.5L141.7,81.5zM.0,20.4L154.0,20.4" stroke="#000000"/><text xml:space="preserve" style="fill:#191919;font-family:Microsoft YaHei;font-size:10.00pt;font-weight:bold"><tspan y="15.0" x="59.2">fence</tspan></text><text xml:space="preserve" style="fill:#191919;font-family:Microsoft YaHei;font-size:10.00pt"><tspan y="55.5" x="64.1">wait</tspan></text></g><g id="shape34" transform="translate(870.740000,120.259300)"><path fill="#aada8f" d="M141.7,81.5C148.5,81.5,154.0,76.0,154.0,69.2L154.0,12.3C154.0,5.5,148.5,.0,141.7,.0L12.3,.0C5.5,.0,.0,5.5,.0,12.3L.0,69.2C.0,76.0,5.5,81.5,12.3,81.5L141.7,81.5z" fill-rule="nonzero"/><path stroke-width="1" fill="none" d="M141.7,81.5C148.5,81.5,154.0,76.0,154.0,69.2L154.0,12.3C154.0,5.5,148.5,.0,141.7,.0L12.3,.0C5.5,.0,.0,5.5,.0,12.3L.0,69.2C.0,76.0,5.5,81.5,12.3,81.5L141.7,81.5zM.0,20.4L154.0,20.4" stroke="#000000"/><text xml:space="preserve" style="fill:#191919;font-family:Microsoft YaHei;font-size:10.00pt;font-weight:bold"><tspan y="15.0" x="61.3">copy</tspan></text><text xml:space="preserve" style="fill:#191919;font-family:Microsoft YaHei;font-size:10.00pt"><tspan y="46.5" x="11.4">GPU memoru to CPU </tspan><tspan y="64.5" x="51.1">memory</tspan></text></g><g id="shape35" transform="translate(54.000000,347.463000)"><path stroke-width="1" fill="#8ba7e1" d="M173.0,.0L.0,.0L.0,52.0L173.0,52.0M43.3,.0L43.3,52.0L.0,52.0L.0,.0L173.0,.0L43.3,.0z" fill-rule="nonzero" stroke="#000000"/><text xml:space="preserve" style="fill:#191919;font-family:Microsoft YaHei;font-size:8.00pt"><tspan y="30.5" x="18.4">1</tspan></text><text xml:space="preserve" style="fill:#191919;font-family:Microsoft YaHei;font-size:8.00pt"><tspan y="30.5" x="86.2">memory</tspan></text></g><g id="shape36" transform="translate(54.000000,441.925000)"><path stroke-width="1" fill="#8ba7e1" d="M173.0,.0L.0,.0L.0,52.0L173.0,52.0M43.3,.0L43.3,52.0L.0,52.0L.0,.0L173.0,.0L43.3,.0z" fill-rule="nonzero" stroke="#000000"/><text xml:space="preserve" style="fill:#191919;font-family:Microsoft YaHei;font-size:8.00pt"><tspan y="30.5" x="18.4">1</tspan></text><text xml:space="preserve" style="fill:#191919;font-family:Microsoft YaHei;font-size:8.00pt"><tspan y="30.5" x="84.3">desriptor</tspan></text></g><g id="shape37" transform="translate(54.000000,536.388000)"><path stroke-width="1" fill="#8ba7e1" d="M173.0,.0L.0,.0L.0,52.0L173.0,52.0M43.3,.0L43.3,52.0L.0,52.0L.0,.0L173.0,.0L43.3,.0z" fill-rule="nonzero" stroke="#000000"/><text xml:space="preserve" style="fill:#191919;font-family:Microsoft YaHei;font-size:8.00pt"><tspan y="30.5" x="18.4">1</tspan></text><text xml:space="preserve" style="fill:#191919;font-family:Microsoft YaHei;font-size:8.00pt"><tspan y="30.5" x="91.6">queue</tspan></text></g><g id="shape38" transform="translate(54.000000,630.850000)"><path stroke-width="1" fill="#8ba7e1" d="M173.0,.0L.0,.0L.0,52.0L173.0,52.0M43.3,.0L43.3,52.0L.0,52.0L.0,.0L173.0,.0L43.3,.0z" fill-rule="nonzero" stroke="#000000"/><text xml:space="preserve" style="fill:#191919;font-family:Microsoft YaHei;font-size:8.00pt"><tspan y="30.5" x="18.4">1</tspan></text><text xml:space="preserve" style="fill:#191919;font-family:Microsoft YaHei;font-size:8.00pt"><tspan y="30.5" x="64.1">command buffer</tspan></text></g><g id="shape39" transform="translate(254.000000,469.460300)"><path fill="#aada8f" d="M141.7,81.5C148.5,81.5,154.0,76.0,154.0,69.2L154.0,12.3C154.0,5.5,148.5,.0,141.7,.0L12.3,.0C5.5,.0,.0,5.5,.0,12.3L.0,69.2C.0,76.0,5.5,81.5,12.3,81.5L141.7,81.5z" fill-rule="nonzero"/><path stroke-width="1" fill="none" d="M141.7,81.5C148.5,81.5,154.0,76.0,154.0,69.2L154.0,12.3C154.0,5.5,148.5,.0,141.7,.0L12.3,.0C5.5,.0,.0,5.5,.0,12.3L.0,69.2C.0,76.0,5.5,81.5,12.3,81.5L141.7,81.5zM.0,20.4L154.0,20.4" stroke="#000000"/><text xml:space="preserve" style="fill:#191919;font-family:Microsoft YaHei;font-size:10.00pt;font-weight:bold"><tspan y="15.0" x="22.1">command buffer</tspan></text><text xml:space="preserve" style="fill:#191919;font-family:Microsoft YaHei;font-size:10.00pt"><tspan y="55.5" x="51.7">creation</tspan></text></g><g id="shape40" transform="translate(331.000000,201.000000)"><path stroke-width="1" fill="none" d="M.0,.0L.0,27.6" stroke="#323232"/><path stroke-width="1" fill="#323232" d="M.0,32.0L3.0,26.8C2.1,27.3,1.1,27.6,.0,27.6C-1.1,27.6,-2.1,27.3,-3.0,26.8L.0,32.0" stroke="#323232" stroke-linecap="round"/></g><g id="shape41" transform="translate(331.000000,325.000000)"><path stroke-width="1" fill="none" d="M.0,.0L.0,26.6" stroke="#323232"/><path stroke-width="1" fill="#323232" d="M.0,31.0L3.0,25.8C2.1,26.3,1.1,26.6,.0,26.6C-1.1,26.6,-2.1,26.3,-3.0,25.8L.0,31.0" stroke="#323232" stroke-linecap="round"/></g><g id="shape42" transform="translate(331.000000,437.000000)"><path stroke-width="1" fill="none" d="M.0,.0L.0,27.6" stroke="#323232"/><path stroke-width="1" fill="#323232" d="M.0,32.0L3.0,26.8C2.1,27.3,1.1,27.6,.0,27.6C-1.1,27.6,-2.1,27.3,-3.0,26.8L.0,32.0" stroke="#323232" stroke-linecap="round"/></g><g id="shape43" transform="translate(331.000000,550.000000)"><path stroke-width="1" fill="none" d="M.0,.0L.0,37.6" stroke="#323232"/><path stroke-width="1" fill="#323232" d="M.0,42.0L3.0,36.8C2.1,37.3,1.1,37.6,.0,37.6C-1.1,37.6,-2.1,37.3,-3.0,36.8L.0,42.0" stroke="#323232" stroke-linecap="round"/></g><g id="shape44" transform="translate(617.000000,633.000000)"><path stroke-width="1" fill="none" d="M.0,.0L28.0,.0L28.0,-471.0L38.6,-471.0" stroke="#323232"/><path stroke-width="1" fill="#323232" d="M43.0,-471.0L37.8,-474.0C38.3,-473.1,38.6,-472.1,38.6,-471.0C38.6,-469.9,38.3,-468.9,37.8,-468.0L43.0,-471.0" stroke="#323232" stroke-linecap="round"/></g><g id="shape45" transform="translate(737.740000,203.179000)"><path stroke-width="1" fill="none" d="M.0,.0L.0,33.6" stroke="#323232"/><path stroke-width="1" fill="#323232" d="M.0,38.0L3.0,32.8C2.1,33.3,1.1,33.6,.0,33.6C-1.1,33.6,-2.1,33.3,-3.0,32.8L.0,38.0" stroke="#323232" stroke-linecap="round"/></g><g id="shape46" transform="translate(737.740000,324.241000)"><path stroke-width="1" fill="none" d="M.0,.0L.0,26.6" stroke="#323232"/><path stroke-width="1" fill="#323232" d="M.0,31.0L3.0,25.8C2.1,26.3,1.1,26.6,.0,26.6C-1.1,26.6,-2.1,26.3,-3.0,25.8L.0,31.0" stroke="#323232" stroke-linecap="round"/></g><g id="shape47" transform="translate(737.740000,437.591000)"><path stroke-width="1" fill="none" d="M.0,.0L.0,27.6" stroke="#323232"/><path stroke-width="1" fill="#323232" d="M.0,32.0L3.0,26.8C2.1,27.3,1.1,27.6,.0,27.6C-1.1,27.6,-2.1,27.3,-3.0,26.8L.0,32.0" stroke="#323232" stroke-linecap="round"/></g><g id="shape48" transform="translate(737.740000,550.942000)"><path stroke-width="1" fill="none" d="M.0,.0L.0,37.6" stroke="#323232"/><path stroke-width="1" fill="#323232" d="M.0,42.0L3.0,36.8C2.1,37.3,1.1,37.6,.0,37.6C-1.1,37.6,-2.1,37.3,-3.0,36.8L.0,42.0" stroke="#323232" stroke-linecap="round"/></g><g id="shape49" transform="translate(814.740000,633.000000)"><path stroke-width="1" fill="none" d="M.0,.0L28.0,.0L28.0,-471.0L51.6,-471.0" stroke="#323232"/><path stroke-width="1" fill="#323232" d="M56.0,-471.0L50.8,-474.0C51.3,-473.1,51.6,-472.1,51.6,-471.0C51.6,-469.9,51.3,-468.9,50.8,-468.0L56.0,-471.0" stroke="#323232" stroke-linecap="round"/></g><g id="shape50" transform="translate(408.000000,633.000000)"><path stroke-width="1" fill="none" d="M.0,.0L28.0,.0L28.0,-471.0L50.6,-471.0" stroke="#323232"/><path stroke-width="1" fill="#323232" d="M55.0,-471.0L49.8,-474.0C50.3,-473.1,50.6,-472.1,50.6,-471.0C50.6,-469.9,50.3,-468.9,49.8,-468.0L55.0,-471.0" stroke="#323232" stroke-linecap="round"/></g><g id="shape51" transform="translate(540.000000,203.179000)"><path stroke-width="1" fill="none" d="M.0,.0L.0,33.6" stroke="#323232"/><path stroke-width="1" fill="#323232" d="M.0,38.0L3.0,32.8C2.1,33.3,1.1,33.6,.0,33.6C-1.1,33.6,-2.1,33.3,-3.0,32.8L.0,38.0" stroke="#323232" stroke-linecap="round"/></g><g id="shape52" transform="translate(540.000000,324.241000)"><path stroke-width="1" fill="none" d="M.0,.0L.0,26.6" stroke="#323232"/><path stroke-width="1" fill="#323232" d="M.0,31.0L3.0,25.8C2.1,26.3,1.1,26.6,.0,26.6C-1.1,26.6,-2.1,26.3,-3.0,25.8L.0,31.0" stroke="#323232" stroke-linecap="round"/></g><g id="shape53" transform="translate(540.000000,437.000000)"><path stroke-width="1" fill="none" d="M.0,.0L.0,27.6" stroke="#323232"/><path stroke-width="1" fill="#323232" d="M.0,32.0L3.0,26.8C2.1,27.3,1.1,27.6,.0,27.6C-1.1,27.6,-2.1,27.3,-3.0,26.8L.0,32.0" stroke="#323232" stroke-linecap="round"/></g><g id="shape54" transform="translate(540.000000,550.000000)"><path stroke-width="1" fill="none" d="M.0,.0L.0,37.6" stroke="#323232"/><path stroke-width="1" fill="#323232" d="M.0,42.0L3.0,36.8C2.1,37.3,1.1,37.6,.0,37.6C-1.1,37.6,-2.1,37.3,-3.0,36.8L.0,42.0" stroke="#323232" stroke-linecap="round"/></g><g id="shape55" transform="translate(870.740000,356.109300)"><path fill="#aada8f" d="M141.7,81.5C148.5,81.5,154.0,76.0,154.0,69.2L154.0,12.3C154.0,5.5,148.5,.0,141.7,.0L12.3,.0C5.5,.0,.0,5.5,.0,12.3L.0,69.2C.0,76.0,5.5,81.5,12.3,81.5L141.7,81.5z" fill-rule="nonzero"/><path stroke-width="1" fill="none" d="M141.7,81.5C148.5,81.5,154.0,76.0,154.0,69.2L154.0,12.3C154.0,5.5,148.5,.0,141.7,.0L12.3,.0C5.5,.0,.0,5.5,.0,12.3L.0,69.2C.0,76.0,5.5,81.5,12.3,81.5L141.7,81.5zM.0,20.4L154.0,20.4" stroke="#000000"/><text xml:space="preserve" style="fill:#191919;font-family:Microsoft YaHei;font-size:10.00pt;font-weight:bold"><tspan y="15.0" x="52.3">destroy</tspan></text><text xml:space="preserve" style="fill:#191919;font-family:Microsoft YaHei;font-size:10.00pt"><tspan y="46.5" x="24.2">buffer, fence and </tspan><tspan y="64.5" x="29.5">descriptor pool</tspan></text></g><g id="shape56" transform="translate(947.000000,201.000000)"><path stroke-width="1" fill="none" d="M.0,.0L.0,36.6" stroke="#323232"/><path stroke-width="1" fill="#323232" d="M.0,41.0L3.0,35.8C2.1,36.3,1.1,36.6,.0,36.6C-1.1,36.6,-2.1,36.3,-3.0,35.8L.0,41.0" stroke="#323232" stroke-linecap="round"/></g><g id="shape57" transform="translate(947.000000,325.000000)"><path stroke-width="1" fill="none" d="M.0,.0L.0,26.6" stroke="#323232"/><path stroke-width="1" fill="#323232" d="M.0,31.0L3.0,25.8C2.1,26.3,1.1,26.6,.0,26.6C-1.1,26.6,-2.1,26.3,-3.0,25.8L.0,31.0" stroke="#323232" stroke-linecap="round"/></g></g></svg>