<svg xmlns:ev="http://www.w3.org/2001/xml-events" width="1132" height="804" viewBox="0 0 1132 804" xmlns="http://www.w3.org/2000/svg" xmlns:xlink="http://www.w3.org/1999/xlink"><defs/><g transform="translate(5.5,5.5)" id="page1"><rect width="1123" height="794" fill="#ffffff" x="0" y="0"/><g id="group1"><path fill="#ffffff" fill-rule="nonzero" d="M.0,.0L1120.0,.0L1120.0,791.7L.0,791.7L.0,.0z" transform="translate(0.001123,2.001713)" id="shape2"/><path fill="#e6fefc" fill-rule="nonzero" d="M.0,.0L.0,127.3L608.9,1.2L.0,.0z" transform="translate(0.000000,0.000079)" id="shape3"/><path fill="#e6fefc" fill-rule="nonzero" d="M.0,.0L.0,174.8L146.4,174.0L.0,.0z" transform="translate(0.000112,618.934224)" id="shape4"/><path fill="#e6fefc" fill-rule="nonzero" d="M147.9,.0L.0,105.5L146.4,104.7L147.9,.0z" transform="translate(974.627717,688.227477)" id="shape5"/><path fill="#fefdf3" fill-rule="nonzero" d="M.0,.0L77.8,97.0L1056.8,97.0L1056.8,80.1L.0,.0z" transform="translate(64.704841,695.925581)" id="shape6"/><path fill="#fefdf3" fill-rule="nonzero" d="M55.6,.0L.0,11.1L569.0,74.9L567.7,1.8L55.6,.0z" transform="translate(553.286024,1.180471)" id="shape7"/></g><g transform="translate(44.962639,359.000000)" id="shape8"><path fill="#aada8f" fill-rule="nonzero" d="M141.7,90.5C148.5,90.5,154.0,85.0,154.0,78.2L154.0,12.3C154.0,5.5,148.5,.0,141.7,.0L12.3,.0C5.5,.0,.0,5.5,.0,12.3L.0,78.2C.0,85.0,5.5,90.5,12.3,90.5L141.7,90.5z"/><path stroke="#000000" fill="none" stroke-width="1" d="M141.7,90.5C148.5,90.5,154.0,85.0,154.0,78.2L154.0,12.3C154.0,5.5,148.5,.0,141.7,.0L12.3,.0C5.5,.0,.0,5.5,.0,12.3L.0,78.2C.0,85.0,5.5,90.5,12.3,90.5L141.7,90.5zM.0,22.6L154.0,22.6"/><text style="fill:#191919;font-family:Microsoft YaHei;font-size:10.00pt;font-weight:bold" xml:space="preserve"><tspan x="47.2" y="16.0">effecktor</tspan></text><text style="fill:#191919;font-family:Microsoft YaHei;font-size:10.00pt" xml:space="preserve"><tspan x="27.5" y="61.2">GPU computing</tspan></text></g><g id="group9"><g transform="translate(0.000000,763.700787)" id="group10"><path stroke="#00aeee" fill="#00aeee" fill-rule="nonzero" stroke-width="1" d="M.0,.0L853.1,.0L853.1,9.4L.0,9.4L.0,.0z" transform="translate(0.000000,20.625000)" id="shape11"/><g transform="translate(853.114961,0.000000)" id="shape12"><path stroke="#8acf57" fill="#8acf57" fill-rule="nonzero" stroke-width="1" d="M.0,.0L269.4,.0L269.4,30.0L.0,30.0L.0,.0z"/><text style="fill:#ffffff;font-family:Microsoft YaHei;font-size:10.00pt" xml:space="preserve"><tspan x="61.0" y="20.0">phantomics/July 9 2023</tspan></text></g></g><g id="group13"><g transform="translate(0.000000,9.428562)" id="shape14"><path stroke="#00aeee" fill="#00aeee" fill-rule="nonzero" stroke-width="1" d="M.0,.0L1122.5,.0L1122.5,47.1L.0,47.1L.0,.0z"/><text style="fill:#ffffff;font-family:Microsoft YaHei;font-size:10.00pt" xml:space="preserve"><tspan x="465.8" y="29.0">April GPU DataFlow</tspan></text><text style="fill:#ffffff;font-family:Microsoft YaHei;font-size:10.00pt" xml:space="preserve"><tspan x="1007.8" y="29.0">John Thingstad</tspan></text></g><path stroke="#8acf57" fill="#8acf57" fill-rule="nonzero" stroke-width="1" d="M.0,.0L66.0,.0L66.0,66.0L.0,66.0L.0,.0z" transform="translate(18.897638,0.000000)" id="shape15"/><path stroke="#ffffff" fill="#ffffff" fill-rule="nonzero" stroke-width="1" d="M.0,.0L3.8,.0L3.8,33.0L.0,33.0L.0,.0z" transform="translate(973.925579,16.500000)" id="shape16"/></g></g><g transform="translate(57.925277,143.394495)" id="shape17"><path stroke="#000000" fill="#ffbf28" fill-rule="nonzero" stroke-width="1" d="M128.1,78.6L128.1,.0L.0,.0L.0,78.6L128.1,78.6z"/><text style="fill:#ffffff;font-family:Microsoft YaHei;font-size:12.00pt;font-weight:bold" xml:space="preserve"><tspan x="42.2" y="45.5">April </tspan></text></g><g transform="translate(44.962639,520.000000)" id="shape18"><path fill="#aada8f" fill-rule="nonzero" d="M141.7,81.5C148.5,81.5,154.0,76.0,154.0,69.2L154.0,12.3C154.0,5.5,148.5,.0,141.7,.0L12.3,.0C5.5,.0,.0,5.5,.0,12.3L.0,69.2C.0,76.0,5.5,81.5,12.3,81.5L141.7,81.5z"/><path stroke="#000000" fill="none" stroke-width="1" d="M141.7,81.5C148.5,81.5,154.0,76.0,154.0,69.2L154.0,12.3C154.0,5.5,148.5,.0,141.7,.0L12.3,.0C5.5,.0,.0,5.5,.0,12.3L.0,69.2C.0,76.0,5.5,81.5,12.3,81.5L141.7,81.5zM.0,20.4L154.0,20.4"/><text style="fill:#191919;font-family:Microsoft YaHei;font-size:10.00pt;font-weight:bold" xml:space="preserve"><tspan x="48.3" y="15.0">compiler</tspan></text><text style="fill:#191919;font-family:Microsoft YaHei;font-size:10.00pt" xml:space="preserve"><tspan x="12.5" y="55.5">compiles to zeta-lisp</tspan></text></g><g transform="translate(288.500000,170.000000)" id="shape19"><path stroke="#000000" fill="#8ba7e1" fill-rule="nonzero" stroke-width="1" d="M173.0,.0L.0,.0L.0,52.0L173.0,52.0M43.3,.0L43.3,52.0L.0,52.0L.0,.0L173.0,.0L43.3,.0z"/><text style="fill:#191919;font-family:Microsoft YaHei;font-size:8.00pt;font-weight:bold" xml:space="preserve"><tspan x="9.5" y="30.5">GPU</tspan></text><text style="fill:#191919;font-family:Microsoft YaHei;font-size:8.00pt" xml:space="preserve"><tspan x="64.2" y="30.5">SPIR-V bytecode</tspan></text></g><g transform="translate(298.000000,268.518519)" id="shape20"><path fill="#aada8f" fill-rule="nonzero" d="M141.7,81.5C148.5,81.5,154.0,76.0,154.0,69.2L154.0,12.3C154.0,5.5,148.5,.0,141.7,.0L12.3,.0C5.5,.0,.0,5.5,.0,12.3L.0,69.2C.0,76.0,5.5,81.5,12.3,81.5L141.7,81.5z"/><path stroke="#000000" fill="none" stroke-width="1" d="M141.7,81.5C148.5,81.5,154.0,76.0,154.0,69.2L154.0,12.3C154.0,5.5,148.5,.0,141.7,.0L12.3,.0C5.5,.0,.0,5.5,.0,12.3L.0,69.2C.0,76.0,5.5,81.5,12.3,81.5L141.7,81.5zM.0,20.4L154.0,20.4"/><text style="fill:#191919;font-family:Microsoft YaHei;font-size:10.00pt;font-weight:bold" xml:space="preserve"><tspan x="42.8" y="15.0">Assembler</tspan></text><text style="fill:#191919;font-family:Microsoft YaHei;font-size:10.00pt" xml:space="preserve"><tspan x="16.7" y="55.5">SPIR-V to Bytecode</tspan></text></g><g transform="translate(298.000000,656.000000)" id="shape21"><path fill="#aada8f" fill-rule="nonzero" d="M141.7,81.5C148.5,81.5,154.0,76.0,154.0,69.2L154.0,12.3C154.0,5.5,148.5,.0,141.7,.0L12.3,.0C5.5,.0,.0,5.5,.0,12.3L.0,69.2C.0,76.0,5.5,81.5,12.3,81.5L141.7,81.5z"/><path stroke="#000000" fill="none" stroke-width="1" d="M141.7,81.5C148.5,81.5,154.0,76.0,154.0,69.2L154.0,12.3C154.0,5.5,148.5,.0,141.7,.0L12.3,.0C5.5,.0,.0,5.5,.0,12.3L.0,69.2C.0,76.0,5.5,81.5,12.3,81.5L141.7,81.5zM.0,20.4L154.0,20.4"/><text style="fill:#191919;font-family:Microsoft YaHei;font-size:10.00pt;font-weight:bold" xml:space="preserve"><tspan x="44.6" y="15.0">Optimizer</tspan></text><text style="fill:#191919;font-family:Microsoft YaHei;font-size:10.00pt" xml:space="preserve"><tspan x="20.3" y="55.5">optimize april AST</tspan></text></g><g transform="translate(35.462639,670.740741)" id="shape22"><path stroke="#000000" fill="#8ba7e1" fill-rule="nonzero" stroke-width="1" d="M173.0,.0L.0,.0L.0,52.0L173.0,52.0M43.3,.0L43.3,52.0L.0,52.0L.0,.0L173.0,.0L43.3,.0z"/><text style="fill:#191919;font-family:Microsoft YaHei;font-size:8.00pt" xml:space="preserve"><tspan x="10.1" y="30.5">GPU</tspan></text><text style="fill:#191919;font-family:Microsoft YaHei;font-size:8.00pt" xml:space="preserve"><tspan x="85.4" y="30.5">zeta AST</tspan></text></g><g transform="translate(601.962639,148.293578)" id="shape23"><path stroke="#000000" fill="#ffbf28" fill-rule="nonzero" stroke-width="1" d="M128.1,73.7L128.1,.0L.0,.0L.0,73.7L128.1,73.7z"/><text style="fill:#ffffff;font-family:Microsoft YaHei;font-size:12.00pt;font-weight:bold" xml:space="preserve"><tspan x="36.8" y="43.0">Vulcan</tspan></text></g><g transform="translate(589.000000,268.518519)" id="shape24"><path fill="#aada8f" fill-rule="nonzero" d="M141.7,81.5C148.5,81.5,154.0,76.0,154.0,69.2L154.0,12.3C154.0,5.5,148.5,.0,141.7,.0L12.3,.0C5.5,.0,.0,5.5,.0,12.3L.0,69.2C.0,76.0,5.5,81.5,12.3,81.5L141.7,81.5z"/><path stroke="#000000" fill="none" stroke-width="1" d="M141.7,81.5C148.5,81.5,154.0,76.0,154.0,69.2L154.0,12.3C154.0,5.5,148.5,.0,141.7,.0L12.3,.0C5.5,.0,.0,5.5,.0,12.3L.0,69.2C.0,76.0,5.5,81.5,12.3,81.5L141.7,81.5zM.0,20.4L154.0,20.4"/><text style="fill:#191919;font-family:Microsoft YaHei;font-size:10.00pt;font-weight:bold" xml:space="preserve"><tspan x="55.3" y="15.0">vulkan</tspan></text><text style="fill:#191919;font-family:Microsoft YaHei;font-size:10.00pt" xml:space="preserve"><tspan x="29.3" y="55.5">shader pipeline</tspan></text></g><g transform="translate(375.000000,268.518519)" id="shape25"><path stroke="#323232" fill="none" stroke-width="1" d="M.0,.0L.0,-41.6"/><path stroke="#323232" stroke-linecap="round" fill="#323232" stroke-width="1" d="M.0,-46.0L-3.0,-40.8C-2.1,-41.3,-1.1,-41.6,.0,-41.6C1.1,-41.6,2.1,-41.3,3.0,-40.8L.0,-46.0"/></g><g transform="translate(34.500000,255.000000)" id="shape26"><path stroke="#000000" fill="#8ba7e1" fill-rule="nonzero" stroke-width="1" d="M173.0,.0L.0,.0L.0,52.0L173.0,52.0M43.3,.0L43.3,52.0L.0,52.0L.0,.0L173.0,.0L43.3,.0z"/><text style="fill:#191919;font-family:Microsoft YaHei;font-size:8.00pt" xml:space="preserve"><tspan x="11.4" y="30.5">AST</tspan></text><text style="fill:#191919;font-family:Microsoft YaHei;font-size:8.00pt" xml:space="preserve"><tspan x="83.9" y="30.5">April AST</tspan></text></g><g transform="translate(288.500000,411.850394)" id="shape27"><path stroke="#000000" fill="#8ba7e1" fill-rule="nonzero" stroke-width="1" d="M173.0,.0L.0,.0L.0,52.0L173.0,52.0M43.3,.0L43.3,52.0L.0,52.0L.0,.0L173.0,.0L43.3,.0z"/><text style="fill:#191919;font-family:Microsoft YaHei;font-size:8.00pt" xml:space="preserve"><tspan x="10.1" y="30.5">GPU</tspan></text><text style="fill:#191919;font-family:Microsoft YaHei;font-size:8.00pt" xml:space="preserve"><tspan x="58.1" y="30.5">SPIR-V instructions</tspan></text></g><g transform="translate(375.000000,411.850394)" id="shape28"><path stroke="#323232" fill="none" stroke-width="1" d="M.0,.0L.0,-55.6"/><path stroke="#323232" stroke-linecap="round" fill="#323232" stroke-width="1" d="M.0,-60.0L-3.0,-54.8C-2.1,-55.3,-1.1,-55.6,.0,-55.6C1.1,-55.6,2.1,-55.3,3.0,-54.8L.0,-60.0"/></g><g transform="translate(121.000000,223.000000)" id="shape29"><path stroke="#323232" fill="none" stroke-width="1" d="M.0,.0L.0,27.6"/><path stroke="#323232" stroke-linecap="round" fill="#323232" stroke-width="1" d="M.0,32.0L3.0,26.8C2.1,27.3,1.1,27.6,.0,27.6C-1.1,27.6,-2.1,27.3,-3.0,26.8L.0,32.0"/></g><g transform="translate(121.000000,306.000000)" id="shape30"><path stroke="#323232" fill="none" stroke-width="1" d="M.0,.0L.0,48.6"/><path stroke="#323232" stroke-linecap="round" fill="#323232" stroke-width="1" d="M.0,53.0L3.0,47.8C2.1,48.3,1.1,48.6,.0,48.6C-1.1,48.6,-2.1,48.3,-3.0,47.8L.0,53.0"/></g><g transform="translate(121.000000,449.000000)" id="shape31"><path stroke="#323232" fill="none" stroke-width="1" d="M.0,.0L.0,66.6"/><path stroke="#323232" stroke-linecap="round" fill="#323232" stroke-width="1" d="M.0,71.0L3.0,65.8C2.1,66.3,1.1,66.6,.0,66.6C-1.1,66.6,-2.1,66.3,-3.0,65.8L.0,71.0"/></g><g transform="translate(121.000000,601.000000)" id="shape32"><path stroke="#323232" fill="none" stroke-width="1" d="M.0,.0L.0,64.6"/><path stroke="#323232" stroke-linecap="round" fill="#323232" stroke-width="1" d="M.0,69.0L3.0,63.8C2.1,64.3,1.1,64.6,.0,64.6C-1.1,64.6,-2.1,64.3,-3.0,63.8L.0,69.0"/></g><g transform="translate(298.000000,520.000000)" id="shape33"><path fill="#aada8f" fill-rule="nonzero" d="M141.7,81.5C148.5,81.5,154.0,76.0,154.0,69.2L154.0,12.3C154.0,5.5,148.5,.0,141.7,.0L12.3,.0C5.5,.0,.0,5.5,.0,12.3L.0,69.2C.0,76.0,5.5,81.5,12.3,81.5L141.7,81.5z"/><path stroke="#000000" fill="none" stroke-width="1" d="M141.7,81.5C148.5,81.5,154.0,76.0,154.0,69.2L154.0,12.3C154.0,5.5,148.5,.0,141.7,.0L12.3,.0C5.5,.0,.0,5.5,.0,12.3L.0,69.2C.0,76.0,5.5,81.5,12.3,81.5L141.7,81.5zM.0,20.4L154.0,20.4"/><text style="fill:#191919;font-family:Microsoft YaHei;font-size:10.00pt;font-weight:bold" xml:space="preserve"><tspan x="48.3" y="15.0">compiler</tspan></text><text style="fill:#191919;font-family:Microsoft YaHei;font-size:10.00pt" xml:space="preserve"><tspan x="11.5" y="55.5">ZL-AST to SPIRV inst.</tspan></text></g><g transform="translate(375.000000,655.000000)" id="shape34"><path stroke="#323232" fill="none" stroke-width="1" d="M.0,.0L.0,-49.6"/><path stroke="#323232" stroke-linecap="round" fill="#323232" stroke-width="1" d="M.0,-54.0L-3.0,-48.8C-2.1,-49.3,-1.1,-49.6,.0,-49.6C1.1,-49.6,2.1,-49.3,3.0,-48.8L.0,-54.0"/></g><g transform="translate(375.000000,520.000000)" id="shape35"><path stroke="#323232" fill="none" stroke-width="1" d="M.0,.0L.0,-52.6"/><path stroke="#323232" stroke-linecap="round" fill="#323232" stroke-width="1" d="M.0,-57.0L-3.0,-51.8C-2.1,-52.3,-1.1,-52.6,.0,-52.6C1.1,-52.6,2.1,-52.3,3.0,-51.8L.0,-57.0"/></g><g transform="translate(298.000000,696.000000)" id="shape36"><path stroke="#323232" fill="none" stroke-width="1" d="M-4.0,.0L-85.6,.0"/><path stroke="#323232" stroke-linecap="round" fill="#323232" stroke-width="1" d="M-4.0,-4.0L.0,.0L-4.0,4.0L-4.0,-4.0"/><path stroke="#323232" stroke-linecap="round" fill="#323232" stroke-width="1" d="M-90.0,.0L-84.8,3.0C-85.3,2.1,-85.6,1.1,-85.6,.0C-85.6,-1.1,-85.3,-2.1,-84.8,-3.0L-90.0,.0"/></g><g transform="translate(666.000000,223.000000)" id="shape37"><path stroke="#323232" fill="none" stroke-width="1" d="M.0,.0L.0,40.6"/><path stroke="#323232" stroke-linecap="round" fill="#323232" stroke-width="1" d="M.0,45.0L3.0,39.8C2.1,40.3,1.1,40.6,.0,40.6C-1.1,40.6,-2.1,40.3,-3.0,39.8L.0,45.0"/></g><g transform="translate(461.000000,196.000000)" id="shape38"><path stroke="#323232" fill="none" stroke-width="1" d="M.0,.0L100.0,.0L100.0,112.0L123.6,112.0"/><path stroke="#323232" stroke-linecap="round" fill="#323232" stroke-width="1" d="M128.0,112.0L122.8,109.0C123.3,109.9,123.6,110.9,123.6,112.0C123.6,113.1,123.3,114.1,122.8,115.0L128.0,112.0"/></g><g transform="matrix(-1.000000,0.000000,0.000000,1.000000,708.000000,450.000000)" id="group39"><path stroke="#000000" fill="#000000" fill-rule="nonzero" stroke-width="1" d="M84.0,84.0L95.6,71.5L95.6,-12.5L84.0,.0L84.0,84.0z" id="shape40"/><path stroke="#000000" fill="#000000" fill-rule="nonzero" stroke-width="1" d="M.0,.0L84.0,.0L95.6,-12.5L11.6,-12.5L.0,.0z" id="shape41"/><g transform="translate(0.000000,-0.000000)" id="shape42"><path stroke="#000000" fill="#ffffff" fill-rule="nonzero" stroke-width="1" d="M.0,.0L84.0,.0L84.0,84.6L.0,84.6L.0,.0z"/><text style="fill:#191919;font-family:Liberation Serif;font-size:12.00pt" xml:space="preserve" transform="matrix(-1.00,0.00,0.00,1.00,84.0,0.0)"><tspan x="26.0" y="47.8">GPU</tspan></text></g><g transform="translate(51.620436,6.718328)" id="shape43"><path stroke="#000000" stroke-dasharray="2,5" fill="#ffffff" fill-rule="nonzero" stroke-width="1" d="M.0,.0L31.9,.0L31.9,16.8L.0,16.8L.0,.0z"/><text style="fill:#191919;font-family:Liberation Serif;font-size:12.00pt" xml:space="preserve" transform="matrix(-1.00,0.00,0.00,1.00,31.9,0.0)"><tspan x="12.0" y="13.9">1</tspan></text></g></g><g transform="translate(666.000000,351.000000)" id="shape44"><path stroke="#323232" fill="none" stroke-width="1" d="M.0,.0L.0,87.6"/><path stroke="#323232" stroke-linecap="round" fill="#323232" stroke-width="1" d="M.0,92.0L3.0,86.8C2.1,87.3,1.1,87.6,.0,87.6C-1.1,87.6,-2.1,87.3,-3.0,86.8L.0,92.0"/></g><g transform="matrix(-1.000000,0.000000,0.000000,1.000000,883.000000,450.000000)" id="group45"><path stroke="#000000" fill="#000000" fill-rule="nonzero" stroke-width="1" d="M84.0,84.0L95.6,71.5L95.6,-12.5L84.0,.0L84.0,84.0z" id="shape46"/><path stroke="#000000" fill="#000000" fill-rule="nonzero" stroke-width="1" d="M.0,.0L84.0,.0L95.6,-12.5L11.6,-12.5L.0,.0z" id="shape47"/><g transform="translate(0.000000,-0.278040)" id="shape48"><path stroke="#000000" fill="#ffffff" fill-rule="nonzero" stroke-width="1" d="M.0,.0L84.0,.0L84.0,84.6L.0,84.6L.0,.0z"/><text style="fill:#191919;font-family:Liberation Serif;font-size:12.00pt" xml:space="preserve" transform="matrix(-1.00,0.00,0.00,1.00,84.0,0.0)"><tspan x="26.0" y="47.8">GPU</tspan></text></g><g transform="translate(51.620436,6.718328)" id="shape49"><path stroke="#000000" stroke-dasharray="2,5" fill="#ffffff" fill-rule="nonzero" stroke-width="1" d="M.0,.0L31.9,.0L31.9,16.8L.0,16.8L.0,.0z"/><text style="fill:#191919;font-family:Liberation Serif;font-size:12.00pt" xml:space="preserve" transform="matrix(-1.00,0.00,0.00,1.00,31.9,0.0)"><tspan x="12.0" y="13.9">2</tspan></text></g></g><g transform="translate(704.000000,351.000000)" id="shape50"><path stroke="#323232" fill="none" stroke-width="1" d="M.0,.0L.0,58.0L137.0,58.0L137.0,87.6"/><path stroke="#323232" stroke-linecap="round" fill="#323232" stroke-width="1" d="M137.0,92.0L140.0,86.8C139.1,87.3,138.1,87.6,137.0,87.6C135.9,87.6,134.9,87.3,134.0,86.8L137.0,92.0"/></g></g></svg>